<?xml version="1.0" encoding="iso-8859-1"?>
<!-- Generator: Adobe Illustrator 19.0.0, SVG Export Plug-In . SVG Version: 6.00 Build 0)  -->
<svg version="1.1" id="Layer_1" xmlns="http://www.w3.org/2000/svg" xmlns:xlink="http://www.w3.org/1999/xlink" x="0px" y="0px"
	 viewBox="0 0 512 512" style="enable-background:new 0 0 512 512;" xml:space="preserve">
<polygon style="fill:#F8B64C;" points="512,256 454.4,291.2 497.067,343.467 429.867,356.267 452.267,420.267 385.067,409.6 
	384,477.867 325.333,444.8 300.8,507.733 256,457.6 211.2,507.733 186.667,444.8 128,477.867 126.933,409.6 59.733,420.267 
	82.133,356.267 14.933,343.467 57.6,291.2 0,256 57.6,220.8 14.933,168.533 82.133,155.733 59.733,91.733 126.933,102.4 128,34.133 
	186.667,67.2 211.2,4.267 256,54.4 300.8,4.267 325.333,67.2 384,34.133 385.067,102.4 452.267,91.733 429.867,155.733 
	497.067,168.533 454.4,220.8 "/>
<path style="fill:#FFD15C;" d="M256,433.067c-97.067,0-177.067-78.933-177.067-177.067S158.933,78.933,256,78.933
	S433.067,157.867,433.067,256S353.067,433.067,256,433.067z"/>
<path style="fill:#FFFFFF;" d="M133.333,250.667c-6.4,0-11.733-5.333-11.733-11.733c0-65.067,52.267-117.333,117.333-117.333
	c6.4,0,11.733,5.333,11.733,11.733c0,6.4-5.333,11.733-11.733,11.733C186.667,145.067,144,187.733,144,240
	C144,245.333,138.667,250.667,133.333,250.667z"/>
<g>
</g>
<g>
</g>
<g>
</g>
<g>
</g>
<g>
</g>
<g>
</g>
<g>
</g>
<g>
</g>
<g>
</g>
<g>
</g>
<g>
</g>
<g>
</g>
<g>
</g>
<g>
</g>
<g>
</g>
</svg>
