<?xml version="1.0" encoding="iso-8859-1"?>
<!-- Generator: Adobe Illustrator 19.0.0, SVG Export Plug-In . SVG Version: 6.00 Build 0)  -->
<svg version="1.1" id="Layer_1" xmlns="http://www.w3.org/2000/svg" xmlns:xlink="http://www.w3.org/1999/xlink" x="0px" y="0px"
	 viewBox="0 0 511.999 511.999" style="enable-background:new 0 0 511.999 511.999;" xml:space="preserve">
<path style="fill:#F2962E;" d="M215.476,289.151c0,0-19.216-41.276-62.755-41.276c-27.246,0-42.619,18.481-42.619,41.276
	c0,22.796,15.373,41.276,42.619,41.276C196.26,330.429,215.476,289.151,215.476,289.151z"/>
<path style="fill:#D6374C;" d="M390.784,500.444c0,0,15.599-42.775-15.188-73.562c-19.265-19.265-43.204-17.068-59.323-0.949
	c-16.119,16.119-18.316,40.058,0.949,59.323C348.009,516.043,390.784,500.444,390.784,500.444z"/>
<path style="fill:#51AA5B;" d="M309.603,11.556c0,0-42.775-15.599-73.562,15.188c-19.265,19.265-17.068,43.204-0.949,59.323
	s40.058,18.316,59.323-0.949C325.203,54.331,309.603,11.556,309.603,11.556z"/>
<g>
	<path style="fill:#7A1B2E;" d="M152.722,240.27c-26.889,0-46.399,16.623-49.717,41.277H81.052v15.208h21.952
		c3.318,24.654,22.828,41.276,49.717,41.276c47.836,0,68.781-43.806,69.648-45.671l1.495-3.209l-1.495-3.209
		C221.503,284.077,200.558,240.27,152.722,240.27z M201.79,281.547h-42.233l19.61-19.61
		C189.507,267.346,196.97,275.174,201.79,281.547z M152.722,255.478c3.681,0,7.158,0.344,10.452,0.945l-25.125,25.124h-19.653
		C121.418,265.482,134.22,255.478,152.722,255.478z M118.396,296.755h19.653l25.111,25.111c-3.292,0.609-6.766,0.957-10.439,0.957
		C134.22,322.824,121.418,312.821,118.396,296.755z M179.114,316.312l-19.556-19.556h42.149
		C196.862,303.103,189.389,310.904,179.114,316.312z"/>
	<path style="fill:#7A1B2E;" d="M345.307,405.53c-10.141,0-20.097,3.513-28.668,10.013l-15.528-15.528l-10.754,10.754l15.522,15.522
		c-15.085,19.778-13.044,45.329,5.968,64.342c13.978,13.977,32.448,21.365,53.414,21.366c0.002,0,0.002,0,0.004,0
		c15.85,0,27.634-4.232,28.128-4.412l3.324-1.213l1.213-3.325c0.705-1.932,16.872-47.717-16.955-81.544
		C370.523,411.055,358.19,405.53,345.307,405.53z M356.621,455.527h27.731c3.489,11.136,3.23,21.948,2.132,29.862L356.621,455.527z
		 M345.307,420.738c8.762,0,17.378,3.983,24.913,11.521c2.604,2.604,4.819,5.306,6.723,8.059h-35.529l-13.872-13.872
		C333.047,422.736,339.166,420.738,345.307,420.738z M316.762,437.176l13.897,13.897v35.528c-2.84-1.964-5.533-4.194-8.059-6.721
		C309.517,466.797,307.538,450.672,316.762,437.176z M365.259,496.792c-6.925,0-13.392-0.952-19.392-2.81v-27.701l29.798,29.798
		c-3.088,0.418-6.606,0.713-10.402,0.713C365.262,496.792,365.26,496.792,365.259,496.792z"/>
	<path style="fill:#7A1B2E;" d="M335.23,169.036c0-17.968,14.618-32.586,32.586-32.586c17.968,0,32.586,14.618,32.586,32.586
		s-14.618,32.585-32.586,32.585H247.769v15.208h120.046c26.353,0,47.793-21.439,47.793-47.793s-21.439-47.793-47.793-47.793
		c-26.354,0-47.793,21.439-47.793,47.793H335.23z"/>
	<path style="fill:#7A1B2E;" d="M446.706,281.097c-26.352,0-47.792,21.439-47.792,47.792h15.208
		c0-17.968,14.617-32.585,32.585-32.585c17.968,0,32.586,14.617,32.586,32.585c0,17.968-14.618,32.586-32.586,32.586H117.431v15.208
		h329.274c26.353,0,47.793-21.439,47.793-47.793C494.498,302.536,473.059,281.097,446.706,281.097z"/>
	<rect x="260.329" y="281.549" style="fill:#7A1B2E;" width="108.534" height="15.208"/>
	<rect x="300.883" y="241.583" style="fill:#7A1B2E;" width="108.534" height="15.208"/>
	<rect x="17.501" y="201.616" style="fill:#7A1B2E;" width="209.312" height="15.208"/>
	<rect x="43.433" y="123.296" style="fill:#7A1B2E;" width="135.381" height="15.208"/>
	<rect x="114.404" y="162.461" style="fill:#7A1B2E;" width="84.688" height="15.208"/>
	<rect x="43.517" y="41.771" style="fill:#7A1B2E;" width="135.817" height="15.208"/>
	<rect x="62.889" y="401.438" style="fill:#7A1B2E;" width="153.154" height="15.208"/>
	<rect x="339.369" y="81.727" style="fill:#7A1B2E;" width="59.321" height="15.208"/>
	<rect x="32.473" y="441.405" style="fill:#7A1B2E;" width="224.124" height="15.208"/>
	<rect x="21.443" y="361.472" style="fill:#7A1B2E;" width="75.715" height="15.208"/>
	<path style="fill:#7A1B2E;" d="M219.928,111.985l15.528-15.528c8.571,6.5,18.527,10.013,28.667,10.013c0.001,0,0,0,0.001,0
		c12.882,0,25.216-5.524,35.668-15.974c33.825-33.826,17.659-79.611,16.955-81.545l-1.213-3.325l-3.325-1.213
		C311.714,4.232,299.927,0,284.077,0c-20.966,0-39.435,7.388-53.414,21.367c-19.012,19.013-21.053,44.562-5.968,64.341
		l-15.522,15.522L219.928,111.985z M264.125,91.262c-6.14,0-12.259-1.997-17.764-5.708l13.872-13.872h35.512
		c-1.898,2.759-4.108,5.462-6.706,8.059C281.501,87.278,272.886,91.263,264.125,91.262z M305.244,26.67
		c1.063,7.914,1.295,18.714-2.146,29.803H275.44L305.244,26.67z M294.484,15.921l-29.798,29.798V18.018
		c6.001-1.859,12.468-2.81,19.392-2.81C287.875,15.208,291.394,15.503,294.484,15.921z M241.418,32.121
		c2.527-2.527,5.22-4.757,8.059-6.721v35.527L235.58,74.824C226.357,61.328,228.336,45.203,241.418,32.121z"/>
</g>
<g>
</g>
<g>
</g>
<g>
</g>
<g>
</g>
<g>
</g>
<g>
</g>
<g>
</g>
<g>
</g>
<g>
</g>
<g>
</g>
<g>
</g>
<g>
</g>
<g>
</g>
<g>
</g>
<g>
</g>
</svg>
